<svg width="106" height="59" viewBox="0 0 106 59" fill="none" xmlns="http://www.w3.org/2000/svg">
<path d="M42.3057 41.4497V19.4041H48.5273L49.0606 23.1959H49.2384C50.068 21.6968 51.0456 20.6093 52.1715 19.9332C53.3269 19.2277 54.4528 18.875 55.549 18.875C56.2304 18.875 56.7785 18.9191 57.1933 19.0073C57.6377 19.0661 58.008 19.1689 58.3043 19.3159L57.0599 25.8414C56.6748 25.7532 56.2896 25.6797 55.9045 25.621C55.5193 25.5328 55.0749 25.4887 54.5713 25.4887C53.7713 25.4887 52.927 25.7679 52.0382 26.3264C51.179 26.8555 50.4827 27.8108 49.9494 29.1923V41.4497H42.3057Z" fill="#135C33"/>
<path d="M71.1907 41.9788C69.0279 41.9788 67.0725 41.5232 65.3245 40.612C63.6061 39.7007 62.2433 38.3927 61.236 36.6878C60.2286 34.9536 59.725 32.8666 59.725 30.4269C59.725 28.046 60.2286 26.0031 61.236 24.2982C62.2729 22.564 63.6061 21.2265 65.2356 20.2859C66.8651 19.3453 68.5835 18.875 70.3907 18.875C72.5831 18.875 74.3904 19.36 75.8125 20.33C77.2642 21.2706 78.3308 22.5493 79.0122 24.1659C79.7232 25.7826 80.0788 27.5757 80.0788 29.5451C80.0788 30.1917 80.0343 30.8237 79.9454 31.441C79.8862 32.0289 79.8269 32.4551 79.7677 32.7196H65.7689L65.68 27.7814H73.5904C73.5904 26.929 73.3682 26.1941 72.9238 25.5769C72.5091 24.9302 71.7239 24.6069 70.5685 24.6069C69.9167 24.6069 69.2945 24.7832 68.702 25.136C68.1094 25.4887 67.6206 26.0913 67.2354 26.9437C66.8503 27.7961 66.6577 28.9572 66.6577 30.4269C66.6577 31.9848 66.9392 33.1899 67.5021 34.0424C68.065 34.8654 68.7761 35.4386 69.6352 35.7619C70.4944 36.0853 71.3684 36.2469 72.2572 36.2469C73.0275 36.2469 73.7682 36.1441 74.4793 35.9383C75.2199 35.7031 75.9902 35.3651 76.7902 34.9242L79.2788 39.4215C78.0938 40.2445 76.7605 40.8765 75.2792 41.3174C73.7978 41.7583 72.435 41.9788 71.1907 41.9788Z" fill="#135C33"/>
<path d="M87.5611 49.7388C86.8204 49.7388 86.1983 49.6948 85.6946 49.6066C85.1909 49.5184 84.6873 49.4155 84.1836 49.2979L85.5168 43.5661C85.7242 43.5955 85.9613 43.6396 86.2279 43.6983C86.4945 43.7865 86.7316 43.8306 86.9389 43.8306C87.9759 43.8306 88.761 43.6249 89.2943 43.2133C89.8276 42.8018 90.1979 42.2727 90.4053 41.6261L90.672 40.6561L82.2282 19.4041H89.872L92.5385 27.8696C92.8644 28.869 93.1458 29.8831 93.3828 30.9119C93.6198 31.9407 93.8717 33.0136 94.1383 34.1306H94.3161C94.5531 33.0724 94.7753 32.0289 94.9827 31.0001C95.2197 29.9713 95.4715 28.9278 95.7382 27.8696L97.9602 19.4041H105.248L97.7824 41.097C97.0121 43.0664 96.1826 44.6831 95.2938 45.947C94.4346 47.2403 93.3828 48.1957 92.1385 48.8129C90.9238 49.4302 89.398 49.7388 87.5611 49.7388Z" fill="#135C33"/>
<path d="M0.922041 58.1191L1.2697 48.4604H3.5748L5.65317 55.0809H5.75142L7.82979 48.4604H10.1349L10.4825 58.1191H9.00879L8.89543 54.2571L8.78962 50.0551H8.6687L6.46184 57.0006H4.94274L2.73589 50.0551H2.61497L2.5016 54.2647L2.39579 58.1191H0.922041ZM11.7278 58.1191L14.6904 48.4604H17.0409L20.0035 58.1191H18.4693L15.9601 49.4731H15.7712L13.262 58.1191H11.7278ZM13.6626 55.421V54.1665H18.0536V55.421H13.6626ZM26.9693 58.1191L26.7124 56.1617C26.667 55.804 26.5864 55.4991 26.4705 55.2472C26.3597 54.9902 26.1859 54.7912 25.9491 54.6502C25.7122 54.5091 25.3822 54.4385 24.959 54.4385L22.4423 54.431V53.2369L25.1177 53.2293C25.7374 53.2293 26.1808 53.0807 26.4479 52.7834C26.7149 52.4861 26.8484 52.073 26.8484 51.5439V51.3323C26.8484 50.8134 26.7124 50.4128 26.4403 50.1306C26.1682 49.8485 25.7173 49.7074 25.0875 49.7074H22.412V48.4604H25.2991C26.3723 48.4604 27.1532 48.6896 27.642 49.1481C28.1358 49.6066 28.3826 50.2465 28.3826 51.0678V51.3096C28.3826 51.9193 28.2416 52.4181 27.9594 52.8061C27.6823 53.194 27.2162 53.4384 26.5612 53.5392V53.7357L25.9264 53.5165C26.4857 53.5568 26.9164 53.6777 27.2187 53.8793C27.5261 54.0808 27.7503 54.3579 27.8914 54.7106C28.0325 55.0633 28.1408 55.4916 28.2164 55.9954L28.5413 58.1191H26.9693ZM21.3993 58.1191V48.4604H22.8882V53.6525L22.8957 54.2194V58.1191H21.3993ZM35.7825 58.1191L32.5855 53.781H31.5804V52.5793H32.5855L35.7371 48.4604H37.4603L33.7268 53.2898L33.7192 52.927L37.5585 58.1191H35.7825ZM30.1822 58.1191V48.4604H31.6862V58.1191H30.1822ZM38.8618 58.1191V48.4604H40.3582V58.1191H38.8618ZM39.3077 58.1191V56.8494H45.0591V58.1191H39.3077ZM39.7233 53.8264V52.5718H44.8928V53.8264H39.7233ZM39.3001 49.7225V48.4604H45.0062V49.7225H39.3001ZM49.0551 58.1191V48.7249H50.5742V58.1191H49.0551ZM46.2134 49.7301V48.4604H53.4083V49.7301H46.2134ZM59.1203 58.1191H57.6012V48.4604H59.1203V58.1191ZM62.2668 55.0205V53.7659H64.9347C65.5393 53.7659 65.9776 53.6173 66.2497 53.32C66.5268 53.0177 66.6654 52.5995 66.6654 52.0654V51.4079C66.6654 50.8587 66.5294 50.438 66.2573 50.1458C65.9852 49.8535 65.5494 49.7074 64.9498 49.7074H62.2593V48.4604H64.98C66.0885 48.4604 66.8972 48.7173 67.4061 49.2313C67.92 49.7402 68.1769 50.4531 68.1769 51.3701V52.1032C68.1769 53.0202 67.92 53.7357 67.4061 54.2496C66.8921 54.7635 66.0809 55.0205 64.9725 55.0205H62.2668ZM61.2692 58.1191V48.4604H62.7581V54.1362L62.7656 54.8164V58.1191H61.2692ZM73.3598 58.3156C72.1001 58.3156 71.1428 57.973 70.4878 57.2878C69.8379 56.6026 69.5129 55.6226 69.5129 54.3478V52.2241C69.5129 50.9544 69.8379 49.977 70.4878 49.2917C71.1428 48.6065 72.1001 48.2639 73.3598 48.2639C74.6194 48.2639 75.5742 48.6065 76.2241 49.2917C76.8791 49.977 77.2066 50.9544 77.2066 52.2241V54.3478C77.2066 55.6226 76.8791 56.6026 76.2241 57.2878C75.5742 57.973 74.6194 58.3156 73.3598 58.3156ZM73.3598 57.0535C74.1256 57.0535 74.7 56.8243 75.0829 56.3658C75.4709 55.9022 75.6649 55.2497 75.6649 54.4083V52.1637C75.6649 51.3172 75.4709 50.6672 75.0829 50.2138C74.7 49.7553 74.1256 49.526 73.3598 49.526C72.5939 49.526 72.017 49.7553 71.629 50.2138C71.2461 50.6672 71.0547 51.3172 71.0547 52.1637V54.4083C71.0547 55.2497 71.2461 55.9022 71.629 56.3658C72.017 56.8243 72.5939 57.0535 73.3598 57.0535Z" fill="#135C33"/>
<path d="M37.8494 38.342C37.8494 38.8346 37.7614 39.2921 37.5855 39.7145C37.4095 40.1368 37.1632 40.5063 36.8464 40.823C36.5473 41.1222 36.1866 41.3597 35.7643 41.5357C35.3419 41.7116 34.8844 41.7996 34.3918 41.7996L9.63391 41.7996C9.00045 41.7996 8.3142 41.7292 7.57516 41.5885C6.85372 41.4301 6.13227 41.1925 5.41083 40.8758C4.70698 40.5591 4.02953 40.1544 3.37847 39.6617C2.72741 39.1514 2.14674 38.5443 1.63645 37.8405C1.14375 37.119 0.747838 36.292 0.448703 35.3594C0.149567 34.4092 -1.52553e-07 33.3446 -1.46435e-07 32.1657L-4.99987e-08 13.5841C-4.67111e-08 12.9506 0.0703847 12.2732 0.211154 11.5518C0.36952 10.8127 0.607069 10.0913 0.9238 9.38742C1.24053 8.66597 1.65404 7.97972 2.16433 7.32866C2.67462 6.67761 3.28169 6.10573 3.98554 5.61304C4.70698 5.10275 5.534 4.69803 6.4666 4.3989C7.3992 4.09976 8.45497 3.9502 9.63391 3.9502L39.9629 3.9502L39.9629 10.8127L9.63391 10.8127C8.73651 10.8127 8.05026 11.0503 7.57516 11.5254C7.10006 12.0005 6.86251 12.7043 6.86251 13.6369L6.86251 32.1657C6.86251 33.0455 7.10006 33.7318 7.57516 34.2244C8.06785 34.6995 8.75411 34.9371 9.63391 34.9371L30.9869 34.9371L30.9869 26.3326L12.722 26.3326L12.722 19.4172L34.3918 19.4172C34.8844 19.4172 35.3419 19.514 35.7643 19.7076C36.1866 19.8835 36.5473 20.1299 36.8464 20.4466C37.1632 20.7634 37.4095 21.1329 37.5855 21.5552C37.7614 21.9599 37.8494 22.3998 37.8494 22.8749L37.8494 38.342Z" fill="#135C33"/>
<path d="M51.6821 6.92614L39.774 13.8523L39.774 -4.04598e-07L51.6821 6.92614Z" fill="#135C33"/>
</svg>
